# xmcd
#
# Track frame offsets:
#	150
#	29225
#	52440
#	82540
#	100057
#	123380
#	145782
#	162435
#	210927
#	226512
#
# Disc length: 3217 seconds
#
# Revision: 0
# Processed by: cddbd v1.4PL0 Copyright (c) Steve Scherf et al.
# Submitted via: dBpowerAMP V4.0
#
DISCID=7c0c8f0a
DTITLE=Philip Sayce Group - S/T
DYEAR=1996
DGENRE=Blues
TTITLE0=Grey City Storm
TTITLE1=Morning Star
TTITLE2=Backwater Blues
TTITLE3=You Can Run But You Can't Hide
TTITLE4=Were You There
TTITLE5=Already Gone
TTITLE6=Walk A Mile
TTITLE7=Wrong Place Wrong Time
TTITLE8=Going Down
TTITLE9=Propaganda
EXTD=
EXTT0=
EXTT1=
EXTT2=
EXTT3=
EXTT4=
EXTT5=
EXTT6=
EXTT7=
EXTT8=
EXTT9=
PLAYORDER=
